<svg id="Layer_1" data-name="Layer 1" xmlns="http://www.w3.org/2000/svg" xmlns:xlink="http://www.w3.org/1999/xlink" viewBox="0 0 288.81 29"><defs><style>.cls-1,.cls-2{fill:none;}.cls-1{isolation:isolate;}.cls-2{stroke:#8c8c8c;stroke-miterlimit:10;}.cls-3{fill:#4bb1cc;}.cls-4{fill:#6eb344;}.cls-5{fill:#4bb1cb;}.cls-6{fill:#6eb444;}</style></defs><title>Bottom_Logo</title><path class="cls-1" transform="translate(-0.26 -2.5)"/><image width="1301" height="394" transform="scale(0.07)" xlink:href="../../CognizantLogo.png"/><line class="cls-2" x1="103.08" y1="8.25" x2="103.08" y2="20.58"/><path class="cls-3" d="M120.72,17.25c0,4.11-2.47,6.27-5.47,6.27s-5.32-2.43-5.32-6c0-3.77,2.34-6.25,5.47-6.25S120.72,13.72,120.72,17.25Zm-9.16.2c0,2.54,1.37,4.81,3.77,4.81s3.77-2.25,3.77-4.94c0-2.36-1.24-4.83-3.77-4.83S111.56,14.82,111.56,17.45Z" transform="translate(-0.26 -2.5)"/><path class="cls-3" d="M122.23,17.09c0-.88,0-1.61-0.07-2.32h1.37l0.09,1.41h0a3.12,3.12,0,0,1,2.8-1.61c1.17,0,3,.71,3,3.64v5.1h-1.55V18.4c0-1.37-.51-2.52-2-2.52a2.21,2.21,0,0,0-2.07,1.59,2.41,2.41,0,0,0-.11.73v5.14h-1.55V17.09Z" transform="translate(-0.26 -2.5)"/><path class="cls-3" d="M132.36,19.32a2.73,2.73,0,0,0,2.91,3,5.55,5.55,0,0,0,2.34-.44l0.26,1.1a7,7,0,0,1-2.83.53,4,4,0,0,1-4.17-4.3c0-2.58,1.5-4.61,4-4.61,2.76,0,3.51,2.45,3.51,4,0,0.31,0,.57,0,0.73h-6v0Zm4.52-1.1a2.19,2.19,0,0,0-2.14-2.52,2.55,2.55,0,0,0-2.36,2.52h4.5Z" transform="translate(-0.26 -2.5)"/><path class="cls-4" d="M139.91,11.57a23.26,23.26,0,0,1,3.27-.24A6.78,6.78,0,0,1,148,12.81a5.48,5.48,0,0,1,1.68,4.28,6.28,6.28,0,0,1-1.72,4.64,7.36,7.36,0,0,1-5.25,1.72,24.69,24.69,0,0,1-2.78-.13V11.57Zm1.55,10.53a10.23,10.23,0,0,0,1.55.09c3.29,0,5.08-1.83,5.08-5.05,0-2.8-1.57-4.59-4.81-4.59a9,9,0,0,0-1.81.15v9.4Z" transform="translate(-0.26 -2.5)"/><path class="cls-4" d="M152.11,19.32a2.73,2.73,0,0,0,2.94,3,5.67,5.67,0,0,0,2.36-.44l0.26,1.1a7,7,0,0,1-2.85.53,4,4,0,0,1-4.19-4.3c0-2.58,1.52-4.61,4-4.61,2.78,0,3.53,2.45,3.53,4,0,0.31,0,.57,0,0.73h-6v0Zm4.55-1.1a2.2,2.2,0,0,0-2.16-2.52,2.59,2.59,0,0,0-2.38,2.52h4.55Z" transform="translate(-0.26 -2.5)"/><path class="cls-4" d="M160.26,14.78l1.68,4.81a20.43,20.43,0,0,1,.68,2.19h0c0.2-.71.44-1.41,0.73-2.19L165,14.78h1.63l-3.36,8.54h-1.48l-3.24-8.54h1.66Z" transform="translate(-0.26 -2.5)"/><path class="cls-5" d="M177.94,17.25c0,4.11-2.49,6.27-5.52,6.27s-5.34-2.43-5.34-6c0-3.77,2.34-6.25,5.52-6.25S177.94,13.72,177.94,17.25Zm-9.25.2c0,2.54,1.37,4.81,3.8,4.81s3.82-2.25,3.82-4.94c0-2.36-1.24-4.83-3.8-4.83S168.69,14.82,168.69,17.45Z" transform="translate(-0.26 -2.5)"/><path class="cls-5" d="M179.44,17.56c0-1.1,0-2-.07-2.78h1.39l0.07,1.46h0a3.36,3.36,0,0,1,3-1.66c2.07,0,3.62,1.74,3.62,4.35,0,3.07-1.88,4.59-3.88,4.59A3,3,0,0,1,181,22.17h0v4.64h-1.55V17.56h0Zm1.52,2.3a5.7,5.7,0,0,0,.07.64,2.39,2.39,0,0,0,2.34,1.81C185,22.3,186,21,186,19c0-1.72-.9-3.18-2.54-3.18a2.45,2.45,0,0,0-2.34,1.92,3,3,0,0,0-.11.64v1.48h0Z" transform="translate(-0.26 -2.5)"/><path class="cls-5" d="M188.82,21.73a4,4,0,0,0,2.05.62c1.13,0,1.66-.57,1.66-1.28s-0.44-1.15-1.59-1.57c-1.55-.55-2.25-1.39-2.25-2.43,0-1.37,1.1-2.52,3-2.52a4.17,4.17,0,0,1,2.1.53l-0.4,1.13a3.22,3.22,0,0,0-1.74-.49,1.25,1.25,0,0,0-1.43,1.17c0,0.71.51,1,1.63,1.46,1.48,0.57,2.25,1.3,2.25,2.58,0,1.5-1.17,2.56-3.2,2.56a4.91,4.91,0,0,1-2.41-.57Z" transform="translate(-0.26 -2.5)"/><path class="cls-3" d="M208.11,21.24a6,6,0,0,0,3,.86c1.74,0,2.75-.92,2.75-2.26s-0.7-1.94-2.48-2.63c-2.14-.77-3.47-1.89-3.47-3.75,0-2.06,1.7-3.6,4.25-3.6a5.93,5.93,0,0,1,2.9.65l-0.47,1.39a5.2,5.2,0,0,0-2.5-.63c-1.79,0-2.48,1.08-2.48,2,0,1.24.8,1.85,2.61,2.55,2.22,0.86,3.35,1.94,3.35,3.89s-1.5,3.81-4.6,3.81a6.75,6.75,0,0,1-3.35-.84Z" transform="translate(-0.26 -2.5)"/><path class="cls-3" d="M219.47,11.08v2.73h2.46v1.32h-2.46v5.13c0,1.18.33,1.85,1.29,1.85a3.79,3.79,0,0,0,1-.12l0.08,1.3a4.17,4.17,0,0,1-1.52.24,2.37,2.37,0,0,1-1.85-.73,3.54,3.54,0,0,1-.66-2.48V15.13h-1.46V13.81h1.46V11.53Z" transform="translate(-0.26 -2.5)"/><path class="cls-3" d="M228.6,23.32l-0.14-1.2H228.4a3.51,3.51,0,0,1-2.89,1.41,2.7,2.7,0,0,1-2.89-2.73c0-2.3,2-3.56,5.67-3.54v-0.2a2,2,0,0,0-2.14-2.2,4.67,4.67,0,0,0-2.46.71l-0.39-1.14a5.82,5.82,0,0,1,3.1-.84c2.89,0,3.59,2,3.59,3.89V21a13.48,13.48,0,0,0,.16,2.28H228.6Zm-0.25-4.85c-1.87,0-4,.29-4,2.14A1.52,1.52,0,0,0,226,22.26a2.35,2.35,0,0,0,2.28-1.59,1.82,1.82,0,0,0,.1-0.55V18.47Z" transform="translate(-0.26 -2.5)"/><path class="cls-3" d="M239,23a6.28,6.28,0,0,1-2.71.55,4.5,4.5,0,0,1-4.7-4.85,4.81,4.81,0,0,1,5.07-5,5.7,5.7,0,0,1,2.38.49l-0.39,1.34a4,4,0,0,0-2-.45,3.28,3.28,0,0,0-3.33,3.6,3.25,3.25,0,0,0,3.28,3.56,4.84,4.84,0,0,0,2.11-.47Z" transform="translate(-0.26 -2.5)"/><path class="cls-3" d="M242.22,18.17h0c0.23-.33.57-0.75,0.84-1.08l2.77-3.28h2.07l-3.65,3.91,4.15,5.6h-2.09l-3.26-4.56-0.88,1v3.58h-1.7V9.37h1.7v8.8Z" transform="translate(-0.26 -2.5)"/><path class="cls-6" d="M251.74,11.53h-4V10.08h9.73v1.45h-4V23.32h-1.72V11.53Z" transform="translate(-0.26 -2.5)"/><path class="cls-6" d="M258.38,16.78c0-1.12,0-2.08-.08-3h1.5l0.06,1.87h0.08a2.83,2.83,0,0,1,2.61-2.08,1.84,1.84,0,0,1,.49.06v1.63a2.55,2.55,0,0,0-.58-0.06,2.41,2.41,0,0,0-2.3,2.22,4.9,4.9,0,0,0-.08.81v5.07h-1.7V16.78Z" transform="translate(-0.26 -2.5)"/><path class="cls-6" d="M269.49,23.32l-0.14-1.2H269.3a3.51,3.51,0,0,1-2.89,1.41,2.7,2.7,0,0,1-2.89-2.73c0-2.3,2-3.56,5.67-3.54v-0.2a2,2,0,0,0-2.14-2.2,4.67,4.67,0,0,0-2.46.71l-0.39-1.14a5.82,5.82,0,0,1,3.1-.84c2.89,0,3.59,2,3.59,3.89V21a13.5,13.5,0,0,0,.16,2.28h-1.56Zm-0.25-4.85c-1.87,0-4,.29-4,2.14a1.52,1.52,0,0,0,1.62,1.65,2.35,2.35,0,0,0,2.28-1.59,1.81,1.81,0,0,0,.1-0.55V18.47Z" transform="translate(-0.26 -2.5)"/><path class="cls-6" d="M279.9,23a6.28,6.28,0,0,1-2.71.55,4.5,4.5,0,0,1-4.7-4.85,4.81,4.81,0,0,1,5.07-5,5.7,5.7,0,0,1,2.38.49l-0.39,1.34a4,4,0,0,0-2-.45,3.28,3.28,0,0,0-3.33,3.6,3.25,3.25,0,0,0,3.27,3.56,4.84,4.84,0,0,0,2.11-.47Z" transform="translate(-0.26 -2.5)"/><path class="cls-6" d="M282.38,18.88a3,3,0,0,0,3.24,3.3,6.16,6.16,0,0,0,2.61-.49l0.29,1.24a7.59,7.59,0,0,1-3.14.59c-2.9,0-4.64-1.93-4.64-4.79s1.68-5.13,4.43-5.13c3.08,0,3.9,2.73,3.9,4.48a6.55,6.55,0,0,1-.06.81h-6.63Zm5-1.24c0-1.1-.45-2.81-2.38-2.81-1.74,0-2.5,1.61-2.63,2.81h5Z" transform="translate(-0.26 -2.5)"/><line class="cls-2" x1="200.74" y1="8.19" x2="200.74" y2="20.52"/></svg>