<svg id="Layer_1" data-name="Layer 1" xmlns="http://www.w3.org/2000/svg" viewBox="0 0 789.26 78.99"><defs><style>.cls-1{fill:none;stroke:#898989;stroke-miterlimit:10;stroke-width:2px;}.cls-2{fill:#4bb1cc;}.cls-3{fill:#6eb344;}.cls-4{fill:#4bb1cb;}.cls-5{fill:#6eb444;}</style></defs><title>Insights logo</title><line class="cls-1" x1="399.5" y1="10.79" x2="399.5" y2="65.99"/><path class="cls-2" d="M135.4,272.3c0,18.6-11.2,28.4-24.8,28.4-14.1,0-24.1-11-24.1-27.4,0-17.1,10.6-28.3,24.8-28.3C126,245,135.4,256.3,135.4,272.3Zm-41.5.9c0,11.5,6.2,21.8,17.1,21.8s17.1-10.2,17.1-22.4c0-10.7-5.6-21.9-17.1-21.9S93.9,261.3,93.9,273.2Z" transform="translate(-86.5 -236.61)"/><path class="cls-2" d="M142.2,271.6c0-4-.1-7.3-0.3-10.5h6.2l0.4,6.4h0.2a14.14,14.14,0,0,1,12.7-7.3c5.3,0,13.6,3.2,13.6,16.5v23.1h-7V277.5c0-6.2-2.3-11.4-8.9-11.4a10,10,0,0,0-9.4,7.2,10.9,10.9,0,0,0-.5,3.3v23.3h-7V271.6Z" transform="translate(-86.5 -236.61)"/><path class="cls-2" d="M188.1,281.7c0.2,9.5,6.2,13.4,13.2,13.4a25.15,25.15,0,0,0,10.6-2l1.2,5a31.56,31.56,0,0,1-12.8,2.4c-11.8,0-18.9-7.8-18.9-19.5s6.8-20.9,18-20.9c12.5,0,15.9,11.1,15.9,18.2,0,1.4-.2,2.6-0.2,3.3h-27v0.1Zm20.5-5c0.1-4.5-1.8-11.4-9.7-11.4-7.1,0-10.2,6.6-10.7,11.4h20.4Z" transform="translate(-86.5 -236.61)"/><path class="cls-3" d="M222.3,246.6a105.39,105.39,0,0,1,14.8-1.1c10,0,17.1,2.3,21.8,6.7s7.6,10.6,7.6,19.4-2.7,16-7.8,21-13.4,7.8-23.8,7.8a111.86,111.86,0,0,1-12.6-.6V246.6Zm7,47.7a46.36,46.36,0,0,0,7,.4c14.9,0,23-8.3,23-22.9,0.1-12.7-7.1-20.8-21.8-20.8a40.72,40.72,0,0,0-8.2.7v42.6Z" transform="translate(-86.5 -236.61)"/><path class="cls-3" d="M277.6,281.7c0.2,9.5,6.2,13.4,13.3,13.4a25.67,25.67,0,0,0,10.7-2l1.2,5a31.74,31.74,0,0,1-12.9,2.4c-11.9,0-19-7.8-19-19.5s6.9-20.9,18.2-20.9c12.6,0,16,11.1,16,18.2,0,1.4-.2,2.6-0.2,3.3H277.6v0.1Zm20.6-5c0.1-4.5-1.8-11.4-9.8-11.4-7.1,0-10.2,6.6-10.8,11.4h20.6Z" transform="translate(-86.5 -236.61)"/><path class="cls-3" d="M314.5,261.1l7.6,21.8a92.56,92.56,0,0,1,3.1,9.9h0.2c0.9-3.2,2-6.4,3.3-9.9l7.5-21.8h7.4l-15.2,38.7h-6.7L307,261.1h7.5Z" transform="translate(-86.5 -236.61)"/><path class="cls-4" d="M394.6,272.3c0,18.6-11.3,28.4-25,28.4-14.2,0-24.2-11-24.2-27.4,0-17.1,10.6-28.3,25-28.3C385,245,394.6,256.3,394.6,272.3Zm-41.9.9c0,11.5,6.2,21.8,17.2,21.8s17.3-10.2,17.3-22.4c0-10.7-5.6-21.9-17.2-21.9S352.7,261.3,352.7,273.2Z" transform="translate(-86.5 -236.61)"/><path class="cls-4" d="M401.4,273.7c0-5-.2-9-0.3-12.6h6.3l0.3,6.6h0.2c2.9-4.7,7.4-7.5,13.8-7.5,9.4,0,16.4,7.9,16.4,19.7,0,13.9-8.5,20.8-17.6,20.8-5.1,0-9.6-2.2-11.9-6.1h-0.2v21h-7V273.7h0Zm6.9,10.4a25.83,25.83,0,0,0,.3,2.9,10.82,10.82,0,0,0,10.6,8.2c7.4,0,11.8-6.1,11.8-15,0-7.8-4.1-14.4-11.5-14.4a11.1,11.1,0,0,0-10.6,8.7,13.52,13.52,0,0,0-.5,2.9v6.7h-0.1Z" transform="translate(-86.5 -236.61)"/><path class="cls-4" d="M443.9,292.6a18.26,18.26,0,0,0,9.3,2.8c5.1,0,7.5-2.6,7.5-5.8,0-3.4-2-5.2-7.2-7.1-7-2.5-10.2-6.3-10.2-11,0-6.2,5-11.4,13.4-11.4a18.91,18.91,0,0,1,9.5,2.4l-1.8,5.1a14.61,14.61,0,0,0-7.9-2.2c-4.2,0-6.5,2.4-6.5,5.3,0,3.2,2.3,4.6,7.4,6.6,6.7,2.6,10.2,5.9,10.2,11.7,0,6.8-5.3,11.6-14.5,11.6a22.22,22.22,0,0,1-10.9-2.6Z" transform="translate(-86.5 -236.61)"/><path class="cls-2" d="M509,290.37a27.07,27.07,0,0,0,13.78,3.92c7.86,0,12.45-4.18,12.45-10.24,0-5.61-3.18-8.81-11.22-11.93-9.71-3.47-15.72-8.54-15.72-17,0-9.35,7.68-16.29,19.25-16.29,6.09,0,10.51,1.42,13.16,2.94l-2.12,6.32a23.56,23.56,0,0,0-11.3-2.85c-8.12,0-11.22,4.9-11.22,9,0,5.61,3.62,8.37,11.83,11.57,10.07,3.92,15.19,8.81,15.19,17.62,0,9.26-6.8,17.27-20.84,17.27-5.74,0-12-1.69-15.19-3.83Z" transform="translate(-86.5 -236.61)"/><path class="cls-2" d="M560.49,244.35v12.37h11.13v6H560.49v23.23c0,5.34,1.5,8.37,5.83,8.37a17.19,17.19,0,0,0,4.5-.53l0.35,5.87a18.89,18.89,0,0,1-6.89,1.07c-3.62,0-6.54-1.16-8.39-3.29-2.21-2.31-3-6.14-3-11.21v-23.5h-6.62v-6h6.62V246.4Z" transform="translate(-86.5 -236.61)"/><path class="cls-2" d="M601.82,299.8l-0.62-5.43h-0.26a15.88,15.88,0,0,1-13.07,6.41c-8.66,0-13.07-6.14-13.07-12.37,0-10.41,9.19-16.11,25.7-16V271.5c0-3.56-1-10-9.71-10a21.18,21.18,0,0,0-11.13,3.2l-1.77-5.16a26.38,26.38,0,0,1,14-3.83c13.07,0,16.25,9,16.25,17.62v16.11a61.07,61.07,0,0,0,.71,10.32h-7.07Zm-1.15-22c-8.48-.18-18.1,1.33-18.1,9.7,0,5.07,3.36,7.48,7.33,7.48a10.64,10.64,0,0,0,10.33-7.21,8.24,8.24,0,0,0,.44-2.49v-7.48Z" transform="translate(-86.5 -236.61)"/><path class="cls-2" d="M649,298.2a28.45,28.45,0,0,1-12.28,2.49c-12.89,0-21.29-8.81-21.29-22s9-22.87,23-22.87a25.81,25.81,0,0,1,10.77,2.23l-1.77,6.05a17.91,17.91,0,0,0-9-2c-9.8,0-15.1,7.3-15.1,16.29,0,10,6.36,16.11,14.84,16.11a21.93,21.93,0,0,0,9.54-2.14Z" transform="translate(-86.5 -236.61)"/><path class="cls-2" d="M663.55,276.48h0.18c1.06-1.51,2.56-3.38,3.8-4.9l12.54-14.86h9.36l-16.52,17.71,18.81,25.37h-9.45l-14.75-20.65-4,4.45v16.2h-7.68V236.61h7.68v39.87Z" transform="translate(-86.5 -236.61)"/><path class="cls-5" d="M706.64,246.4h-18.1v-6.59h44.07v6.59H714.42v53.4h-7.77V246.4Z" transform="translate(-86.5 -236.61)"/><path class="cls-5" d="M736.76,270.16c0-5.07-.09-9.43-0.35-13.44h6.8l0.26,8.46h0.35c1.94-5.79,6.62-9.43,11.83-9.43a8.33,8.33,0,0,1,2.21.27v7.39a11.56,11.56,0,0,0-2.65-.27c-5.48,0-9.36,4.18-10.42,10.06a22.19,22.19,0,0,0-.35,3.65v23h-7.68V270.16Z" transform="translate(-86.5 -236.61)"/><path class="cls-5" d="M787.1,299.8l-0.62-5.43h-0.26a15.88,15.88,0,0,1-13.07,6.41c-8.66,0-13.07-6.14-13.07-12.37,0-10.41,9.19-16.11,25.7-16V271.5c0-3.56-1-10-9.72-10a21.18,21.18,0,0,0-11.13,3.2l-1.77-5.16a26.37,26.37,0,0,1,14-3.83c13.07,0,16.25,9,16.25,17.62v16.11a61.17,61.17,0,0,0,.71,10.32H787.1Zm-1.15-22c-8.48-.18-18.11,1.33-18.11,9.7,0,5.07,3.36,7.48,7.33,7.48a10.64,10.64,0,0,0,10.33-7.21,8.21,8.21,0,0,0,.44-2.49v-7.48Z" transform="translate(-86.5 -236.61)"/><path class="cls-5" d="M834.25,298.2A28.45,28.45,0,0,1,822,300.69c-12.89,0-21.28-8.81-21.28-22s9-22.87,23-22.87a25.82,25.82,0,0,1,10.78,2.23l-1.77,6.05a17.91,17.91,0,0,0-9-2c-9.8,0-15.1,7.3-15.1,16.29,0,10,6.36,16.11,14.84,16.11a21.93,21.93,0,0,0,9.54-2.14Z" transform="translate(-86.5 -236.61)"/><path class="cls-5" d="M845.47,279.69c0.18,10.59,6.89,15,14.66,15A27.92,27.92,0,0,0,872,292.41l1.32,5.61a34.39,34.39,0,0,1-14.22,2.67c-13.16,0-21-8.72-21-21.72s7.59-23.23,20-23.23c14,0,17.66,12.37,17.66,20.29a29.66,29.66,0,0,1-.26,3.65h-30Zm22.79-5.61c0.09-5-2-12.73-10.77-12.73-7.86,0-11.3,7.3-11.92,12.73h22.7Z" transform="translate(-86.5 -236.61)"/></svg>