<svg id="Layer_1" data-name="Layer 1" xmlns="http://www.w3.org/2000/svg" viewBox="0 0 20 21.94"><defs><style>.cls-1,.cls-2{fill:none;}.cls-2{stroke:#0782a3;stroke-miterlimit:10;stroke-width:1.5px;}.cls-3{fill:#0782a3;}</style></defs><title>Delete_blue_icon</title><path class="cls-1" d="M-1.5-.65" transform="translate(0 0.01)"/><path class="cls-2" d="M2.29,6.38H17.71V18.86a2.32,2.32,0,0,1-2.32,2.32H4.61a2.32,2.32,0,0,1-2.32-2.32V6.38h0Z" transform="translate(0 0.01)"/><path class="cls-2" d="M3.14,2.75H16.86a2.39,2.39,0,0,1,2.39,2.39V6.31H0.75V5.14A2.39,2.39,0,0,1,3.14,2.75Z" transform="translate(0 0.01)"/><path class="cls-3" d="M11.75,1a0.88,0.88,0,0,1,.88.88h0V2H7.37V1.87A0.88,0.88,0,0,1,8.25,1h3.5m0-1H8.25A1.88,1.88,0,0,0,6.37,1.87h0V3h7.25V1.87A1.88,1.88,0,0,0,11.75,0h0Z" transform="translate(0 0.01)"/><rect class="cls-3" x="5.91" y="8.89" width="1.94" height="9.81"/><rect class="cls-3" x="9.03" y="8.89" width="1.94" height="9.81"/><rect class="cls-3" x="12.16" y="8.89" width="1.94" height="9.81"/></svg>