<svg id="Layer_1" data-name="Layer 1" xmlns="http://www.w3.org/2000/svg" viewBox="0 0 20.25 19.66"><defs><style>.cls-1{fill:#0782a3;}.cls-2,.cls-3{fill:none;}.cls-3{stroke:#0782a3;stroke-miterlimit:10;stroke-width:1.5px;}</style></defs><title>Edit_icon</title><rect class="cls-1" x="3.12" y="10.6" width="13.51" height="1.91" transform="translate(-6.03 9.06) rotate(-45)"/><rect class="cls-1" x="0.86" y="8.36" width="13.55" height="1.91" transform="translate(-5.1 6.82) rotate(-45)"/><rect class="cls-1" x="5.34" y="12.85" width="13.44" height="1.91" transform="translate(-6.98 11.26) rotate(-45)"/><polygon class="cls-1" points="7.23 17.92 4.81 14.5 1.42 12.11 0 18.77 7.23 17.92"/><line class="cls-2" x1="5.67" y1="19.66" x2="20.25" y2="5.16"/><path class="cls-1" d="M14.47,1" transform="translate(-0.75 -1.31)"/><path class="cls-1" d="M15,2.81a0.11,0.11,0,0,1,.08,0l3.4,3.4a0.11,0.11,0,0,1,0,.15L18,6.85,14.46,3.29l0.45-.45a0.11,0.11,0,0,1,.08,0m0-1.5a1.6,1.6,0,0,0-1.14.47L12.33,3.29,18,9l1.51-1.51a1.61,1.61,0,0,0,0-2.28l-3.4-3.4A1.6,1.6,0,0,0,15,1.31h0Z" transform="translate(-0.75 -1.31)"/><line class="cls-3" x1="10.56" y1="3" x2="16.36" y2="8.81"/><path class="cls-1" d="M3.25,16.75" transform="translate(-0.75 -1.31)"/></svg>