<svg id="Layer_1" data-name="Layer 1" xmlns="http://www.w3.org/2000/svg" viewBox="0 0 15.22 17.54"><defs><style>.cls-1{fill:none;}.cls-2{fill:#0782a3;}</style></defs><title>browse</title><path class="cls-1" d="M-3.14-1.17" transform="translate(-1.87 -2.05)"/><path class="cls-2" d="M5.43,2.9h7.85V16.24H2.7V6.32C3.83,4.9,4.54,4.05,5.43,2.9M5.24,2C4.66,2.85,2.7,5,1.87,6V16.41a0.68,0.68,0,0,0,.68.68h10.9a0.68,0.68,0,0,0,.68-0.68V2.73A0.68,0.68,0,0,0,13.45,2H5.24Z" transform="translate(-1.87 -2.05)"/><path class="cls-2" d="M5.11,3.86V5.91H3.35L5.11,3.86M5.79,2L1.87,6.58H5.79V2h0Z" transform="translate(-1.87 -2.05)"/><path class="cls-2" d="M9,7.51A3.93,3.93,0,1,0,13,11.45,3.93,3.93,0,0,0,9,7.51Zm0,7a3,3,0,1,1,3-3A3,3,0,0,1,9,14.53Z" transform="translate(-1.87 -2.05)"/><rect class="cls-2" x="10.19" y="16.12" width="7.88" height="1.01" rx="0.46" ry="0.46" transform="translate(14.03 -7.17) rotate(45)"/><circle class="cls-2" cx="7.15" cy="9.45" r="2.2"/><polygon class="cls-2" points="0.98 4.08 3.56 4.08 3.56 0.88 0.98 4.08"/></svg>