<?xml version="1.0" encoding="utf-8"?>
<!-- Generator: Adobe Illustrator 19.0.0, SVG Export Plug-In . SVG Version: 6.00 Build 0)  -->
<svg version="1.1" id="Layer_1" xmlns="http://www.w3.org/2000/svg" xmlns:xlink="http://www.w3.org/1999/xlink" x="0px" y="0px"
	 viewBox="0 0 20 20" style="enable-background:new 0 0 20 20;" xml:space="preserve">
<style type="text/css">
	.st0{fill:#0782A3;}
	.st1{fill:#FFFFFF;}
	.st2{fill:#FFFFFF;stroke:#0782A3;stroke-miterlimit:10;}
</style>
<rect id="XMLID_1_" x="1.3" y="3.6" class="st0" width="17.4" height="16"/>
<rect id="XMLID_3_" x="2" y="7.1" class="st1" width="16" height="11.9"/>
<path id="XMLID_4_" class="st2" d="M6.5,6.4L6.5,6.4C5.7,6.4,5,5.8,5,4.9V2.2c0-0.8,0.7-1.5,1.5-1.5h0C7.3,0.7,8,1.4,8,2.2v2.8
	C8,5.8,7.3,6.4,6.5,6.4z"/>
<path id="XMLID_6_" class="st2" d="M13.5,6.4L13.5,6.4c-0.8,0-1.5-0.7-1.5-1.5V2.2c0-0.8,0.7-1.5,1.5-1.5h0c0.8,0,1.5,0.7,1.5,1.5
	v2.8C15,5.8,14.3,6.4,13.5,6.4z"/>
<rect id="XMLID_5_" x="1.7" y="10.1" class="st0" width="16.7" height="0.9"/>
<rect id="XMLID_11_" x="1.5" y="4.1" class="st0" width="0.9" height="15"/>
<rect id="XMLID_12_" x="17.5" y="4.4" class="st0" width="0.9" height="15"/>
<rect id="XMLID_8_" x="1.7" y="14.3" class="st0" width="16.7" height="0.9"/>
<rect id="XMLID_10_" x="1.7" y="18.5" class="st0" width="16.7" height="0.9"/>
<rect id="XMLID_16_" x="5.5" y="7" class="st0" width="0.9" height="12.1"/>
<rect id="XMLID_17_" x="9.5" y="6.9" class="st0" width="0.9" height="12.1"/>
<rect id="XMLID_18_" x="13.5" y="7" class="st0" width="0.9" height="12.1"/>
</svg>
